<?xml version="1.0" encoding="utf-8"?>
<!-- Generator: Adobe Illustrator 21.1.0, SVG Export Plug-In . SVG Version: 6.00 Build 0)  -->
<svg version="1.1" id="Слой_1" xmlns="http://www.w3.org/2000/svg" xmlns:xlink="http://www.w3.org/1999/xlink" x="0px" y="0px"
	 viewBox="0 0 150 30" style="enable-background:new 0 0 150 30;" xml:space="preserve">
<g>
	<linearGradient id="SVGID_1_" gradientUnits="userSpaceOnUse" x1="-3.9921" y1="10.2554" x2="25.8567" y2="32.6219">
		<stop  offset="0" style="stop-color:#1243C3"/>
		<stop  offset="0.5718" style="stop-color:#01317B"/>
		<stop  offset="1" style="stop-color:#0B003F"/>
	</linearGradient>
	<path style="fill:url(#SVGID_1_);" d="M7.8,21.6l1.3-4.6c-0.1,0-0.3-0.1-0.3-0.2l-3.1,2c0,0.1,0,0.1,0,0.2c0,0.1-0.1,0.3-0.1,0.3
		l1.8,2.4c0.1-0.1,0.2-0.1,0.3-0.1C7.7,21.6,7.7,21.6,7.8,21.6z"/>
	<linearGradient id="SVGID_2_" gradientUnits="userSpaceOnUse" x1="6.7723" y1="-4.11" x2="36.6211" y2="18.2565">
		<stop  offset="0" style="stop-color:#1243C3"/>
		<stop  offset="0.5718" style="stop-color:#01317B"/>
		<stop  offset="1" style="stop-color:#0B003F"/>
	</linearGradient>
	<path style="fill:url(#SVGID_2_);" d="M17.7,0.7c0,0-0.1,0-0.1,0c-0.2,0-0.3-0.1-0.4-0.1l-2.3,2.3c0.1,0.1,0.1,0.2,0.1,0.4
		c0,0.1-0.1,0.3-0.1,0.4l5.5,5.7c0.1,0,0.1-0.1,0.2-0.1L17.7,0.7z"/>
	<linearGradient id="SVGID_3_" gradientUnits="userSpaceOnUse" x1="4.6414" y1="-1.2663" x2="34.4902" y2="21.1002">
		<stop  offset="0" style="stop-color:#1243C3"/>
		<stop  offset="0.5718" style="stop-color:#01317B"/>
		<stop  offset="1" style="stop-color:#0B003F"/>
	</linearGradient>
	<path style="fill:url(#SVGID_3_);" d="M15,7.5l-0.6-3.6c0,0,0,0,0,0c-0.3,0-0.6-0.3-0.6-0.6L7.7,3c0,0.1,0,0.1-0.1,0.2
		c1.5,0.9,5.8,3.6,7.1,4.5C14.8,7.6,14.9,7.5,15,7.5z"/>
	<linearGradient id="SVGID_4_" gradientUnits="userSpaceOnUse" x1="6.9333" y1="-4.3249" x2="36.7821" y2="18.0416">
		<stop  offset="0" style="stop-color:#1243C3"/>
		<stop  offset="0.5718" style="stop-color:#01317B"/>
		<stop  offset="1" style="stop-color:#0B003F"/>
	</linearGradient>
	<path style="fill:url(#SVGID_4_);" d="M20.7,9.2C20.7,9.2,20.8,9.2,20.7,9.2l0.7-4.3C21.2,4.8,21,4.6,21,4.4c0-0.1,0-0.2,0.1-0.3
		l-3.2-3.5c0,0-0.1,0.1-0.1,0.1l2.8,8.5C20.6,9.2,20.7,9.2,20.7,9.2z"/>
	<linearGradient id="SVGID_5_" gradientUnits="userSpaceOnUse" x1="-3.5885" y1="9.7168" x2="26.2603" y2="32.0833">
		<stop  offset="0" style="stop-color:#1243C3"/>
		<stop  offset="0.5718" style="stop-color:#01317B"/>
		<stop  offset="1" style="stop-color:#0B003F"/>
	</linearGradient>
	<path style="fill:url(#SVGID_5_);" d="M14.1,22l0.5,2.1c0,0,0,0,0.1,0c0.3,0,0.6,0.3,0.6,0.6c0,0.1,0,0.2,0,0.2l3.1,1.6
		c0,0,0,0,0,0l-4-4.5C14.2,22,14.1,22,14.1,22z"/>
	<linearGradient id="SVGID_6_" gradientUnits="userSpaceOnUse" x1="-5.5892" y1="12.3868" x2="24.2596" y2="34.7533">
		<stop  offset="0" style="stop-color:#1243C3"/>
		<stop  offset="0.5718" style="stop-color:#01317B"/>
		<stop  offset="1" style="stop-color:#0B003F"/>
	</linearGradient>
	<path style="fill:url(#SVGID_6_);" d="M7.8,22.8l0.4,2.5c0,0,0,0,0,0c0.2,0,0.4,0.1,0.5,0.3l5.2-0.9c0,0,0,0,0,0c0,0,0-0.1,0-0.1
		l-5.8-2C8.1,22.6,8,22.8,7.8,22.8z"/>
	<linearGradient id="SVGID_7_" gradientUnits="userSpaceOnUse" x1="3.1345" y1="0.7448" x2="32.9833" y2="23.1112">
		<stop  offset="0" style="stop-color:#1243C3"/>
		<stop  offset="0.5718" style="stop-color:#01317B"/>
		<stop  offset="1" style="stop-color:#0B003F"/>
	</linearGradient>
	<path style="fill:url(#SVGID_7_);" d="M30.7,15.4l-1.8,3.9c0.1,0.1,0.2,0.2,0.2,0.4c0,0.2-0.1,0.4-0.3,0.4l2,7.4c0,0,0,0,0.1,0l0,0
		V15.4l0,0C30.8,15.4,30.7,15.4,30.7,15.4z"/>
	<linearGradient id="SVGID_8_" gradientUnits="userSpaceOnUse" x1="-4.3018" y1="10.6688" x2="25.5469" y2="33.0352">
		<stop  offset="0" style="stop-color:#1243C3"/>
		<stop  offset="0.5718" style="stop-color:#01317B"/>
		<stop  offset="1" style="stop-color:#0B003F"/>
	</linearGradient>
	<path style="fill:url(#SVGID_8_);" d="M13.9,22c-0.3,0-0.5-0.2-0.6-0.5l-5,0.7c0,0,0,0,0,0c0,0,0,0.1,0,0.1l5.8,2
		c0.1-0.1,0.2-0.3,0.4-0.3L13.9,22C13.9,22,13.9,22,13.9,22z"/>
	<linearGradient id="SVGID_9_" gradientUnits="userSpaceOnUse" x1="7.5288" y1="-5.1196" x2="37.3776" y2="17.2468">
		<stop  offset="0" style="stop-color:#1243C3"/>
		<stop  offset="0.5718" style="stop-color:#01317B"/>
		<stop  offset="1" style="stop-color:#0B003F"/>
	</linearGradient>
	<path style="fill:url(#SVGID_9_);" d="M26,4.4h-4c0,0.2-0.2,0.4-0.5,0.4c0,0,0,0,0,0l-0.6,4.3c0.2,0,0.3,0.2,0.5,0.3l4.8-4.8
		C26.1,4.6,26,4.5,26,4.4z"/>
	<linearGradient id="SVGID_10_" gradientUnits="userSpaceOnUse" x1="5.0012" y1="-1.7464" x2="34.85" y2="20.6201">
		<stop  offset="0" style="stop-color:#1243C3"/>
		<stop  offset="0.5718" style="stop-color:#01317B"/>
		<stop  offset="1" style="stop-color:#0B003F"/>
	</linearGradient>
	<path style="fill:url(#SVGID_10_);" d="M14.5,3.9l0.6,3.6c0,0,0,0,0,0c0.3,0,0.5,0.2,0.5,0.4c0.1,0,0.3,0,0.4,0
		c1.4,0,2.7,0.4,3.8,1.1l-5.2-5.3C14.6,3.8,14.5,3.8,14.5,3.9z"/>
	<linearGradient id="SVGID_11_" gradientUnits="userSpaceOnUse" x1="8.9968" y1="-7.0787" x2="38.8456" y2="15.2878">
		<stop  offset="0" style="stop-color:#1243C3"/>
		<stop  offset="0.5718" style="stop-color:#01317B"/>
		<stop  offset="1" style="stop-color:#0B003F"/>
	</linearGradient>
	<path style="fill:url(#SVGID_11_);" d="M18,0.5L21.2,4c0.1-0.1,0.2-0.1,0.3-0.1c0.2,0,0.4,0.2,0.5,0.4h4c0-0.1,0.1-0.2,0.2-0.3
		c-2.1-2-4.9-3.4-7.9-3.8C18.2,0.3,18.1,0.4,18,0.5z"/>
	<linearGradient id="SVGID_12_" gradientUnits="userSpaceOnUse" x1="2.7155" y1="1.3039" x2="32.5643" y2="23.6704">
		<stop  offset="0" style="stop-color:#1243C3"/>
		<stop  offset="0.5718" style="stop-color:#01317B"/>
		<stop  offset="1" style="stop-color:#0B003F"/>
	</linearGradient>
	<path style="fill:url(#SVGID_12_);" d="M14.7,7.8c-1.2-0.8-4.8-3-7.1-4.5c0,0.1-0.1,0.1-0.1,0.1l3.2,6.3c0.1,0,0.1,0,0.2,0
		c0.1,0,0.3,0,0.4,0.1c0.9-0.9,2.1-1.5,3.4-1.8c0,0,0-0.1,0-0.1C14.6,7.9,14.6,7.8,14.7,7.8z"/>
	<linearGradient id="SVGID_13_" gradientUnits="userSpaceOnUse" x1="3.9616" y1="-0.3591" x2="33.8104" y2="22.0074">
		<stop  offset="0" style="stop-color:#1243C3"/>
		<stop  offset="0.5718" style="stop-color:#01317B"/>
		<stop  offset="1" style="stop-color:#0B003F"/>
	</linearGradient>
	<path style="fill:url(#SVGID_13_);" d="M24.9,16.1c0.1-0.2,0.2-0.3,0.5-0.3c0.2,0,0.4,0.1,0.4,0.3l4.5-1.1c0,0,0-0.1,0-0.1h-7.3
		h-4.6c0,0,0,0,0,0L24.9,16.1z"/>
	<linearGradient id="SVGID_14_" gradientUnits="userSpaceOnUse" x1="0.6873" y1="4.0106" x2="30.5361" y2="26.3771">
		<stop  offset="0" style="stop-color:#1243C3"/>
		<stop  offset="0.5718" style="stop-color:#01317B"/>
		<stop  offset="1" style="stop-color:#0B003F"/>
	</linearGradient>
	<path style="fill:url(#SVGID_14_);" d="M24.2,19.5c0,0,0-0.1,0-0.1c0-0.1,0-0.2,0.1-0.3l-6.1-3.9c0,0,0,0-0.1,0.1l3.6,3.6
		c-0.5,0.8-1.2,1.4-2,1.9c0,0,0,0,0,0.1L24.2,19.5z"/>
	<linearGradient id="SVGID_15_" gradientUnits="userSpaceOnUse" x1="-2.3613" y1="8.079" x2="27.4875" y2="30.4455">
		<stop  offset="0" style="stop-color:#1243C3"/>
		<stop  offset="0.5718" style="stop-color:#01317B"/>
		<stop  offset="1" style="stop-color:#0B003F"/>
	</linearGradient>
	<path style="fill:url(#SVGID_15_);" d="M18.3,26.3c0.1-0.1,0.2-0.1,0.3-0.1l0.5-4.8c-0.2,0-0.3-0.1-0.3-0.3
		c-0.8,0.4-1.8,0.6-2.8,0.6c-0.5,0-1.1-0.1-1.6-0.2c0,0.1-0.1,0.2-0.1,0.3L18.3,26.3z"/>
	<linearGradient id="SVGID_16_" gradientUnits="userSpaceOnUse" x1="1.8152" y1="2.5054" x2="31.664" y2="24.8718">
		<stop  offset="0" style="stop-color:#1243C3"/>
		<stop  offset="0.5718" style="stop-color:#01317B"/>
		<stop  offset="1" style="stop-color:#0B003F"/>
	</linearGradient>
	<path style="fill:url(#SVGID_16_);" d="M25.1,19.9l2,4c0.1,0,0.1,0,0.2,0c0,0,0.1,0,0.1,0l1-3.7c-0.2-0.1-0.3-0.2-0.3-0.4l-2.7-0.2
		C25.4,19.7,25.3,19.8,25.1,19.9z"/>
	<linearGradient id="SVGID_17_" gradientUnits="userSpaceOnUse" x1="-0.2486" y1="5.2596" x2="29.6002" y2="27.626">
		<stop  offset="0" style="stop-color:#1243C3"/>
		<stop  offset="0.5718" style="stop-color:#01317B"/>
		<stop  offset="1" style="stop-color:#0B003F"/>
	</linearGradient>
	<path style="fill:url(#SVGID_17_);" d="M19.7,21c0,0.1-0.1,0.3-0.2,0.4l3.9,5.6c0.1,0,0.2-0.1,0.3-0.1c0,0,0,0,0,0l0.9-7
		c-0.2,0-0.3-0.2-0.4-0.4L19.7,21C19.7,21,19.7,21,19.7,21z"/>
	<linearGradient id="SVGID_18_" gradientUnits="userSpaceOnUse" x1="-2.2636" y1="7.9487" x2="27.5852" y2="30.3152">
		<stop  offset="0" style="stop-color:#1243C3"/>
		<stop  offset="0.5718" style="stop-color:#01317B"/>
		<stop  offset="1" style="stop-color:#0B003F"/>
	</linearGradient>
	<path style="fill:url(#SVGID_18_);" d="M19.2,21.5l-0.5,4.8c0.2,0.1,0.4,0.2,0.4,0.5c0,0,0,0,0,0l4,0.6c0-0.1,0.1-0.2,0.2-0.3
		l-3.9-5.6C19.4,21.5,19.3,21.5,19.2,21.5z"/>
	<linearGradient id="SVGID_19_" gradientUnits="userSpaceOnUse" x1="-5.9572" y1="12.878" x2="23.8915" y2="35.2444">
		<stop  offset="0" style="stop-color:#1243C3"/>
		<stop  offset="0.5718" style="stop-color:#01317B"/>
		<stop  offset="1" style="stop-color:#0B003F"/>
	</linearGradient>
	<path style="fill:url(#SVGID_19_);" d="M8.8,25.8c0,0.1,0,0.2-0.1,0.3l2.3,2.4c0.1-0.1,0.2-0.1,0.3-0.1c0.1,0,0.2,0,0.3,0.1
		l2.7-3.4C14.1,25,14,24.9,14,24.8L8.8,25.8C8.8,25.8,8.8,25.8,8.8,25.8z"/>
	<linearGradient id="SVGID_20_" gradientUnits="userSpaceOnUse" x1="2.9055" y1="1.0503" x2="32.7543" y2="23.4168">
		<stop  offset="0" style="stop-color:#1243C3"/>
		<stop  offset="0.5718" style="stop-color:#01317B"/>
		<stop  offset="1" style="stop-color:#0B003F"/>
	</linearGradient>
	<path style="fill:url(#SVGID_20_);" d="M25.6,16.6c-0.1,0.1-0.2,0.1-0.3,0.1c0,0,0,0,0,0L25,18.8c0.3,0.1,0.4,0.3,0.4,0.6l2.7,0.2
		c0-0.1,0.1-0.1,0.1-0.2L25.6,16.6z"/>
	<linearGradient id="SVGID_21_" gradientUnits="userSpaceOnUse" x1="-4.678" y1="11.1708" x2="25.1708" y2="33.5373">
		<stop  offset="0" style="stop-color:#1243C3"/>
		<stop  offset="0.5718" style="stop-color:#01317B"/>
		<stop  offset="1" style="stop-color:#0B003F"/>
	</linearGradient>
	<path style="fill:url(#SVGID_21_);" d="M14.9,25.2l2,3.9c0.1,0,0.1,0,0.2,0c0.1,0,0.1,0,0.2,0l1.1-2c-0.1-0.1-0.2-0.2-0.2-0.4
		c0-0.1,0-0.1,0-0.2L15.1,25C15,25.1,15,25.1,14.9,25.2z"/>
	<linearGradient id="SVGID_22_" gradientUnits="userSpaceOnUse" x1="6.0698" y1="-3.1725" x2="35.9186" y2="19.1939">
		<stop  offset="0" style="stop-color:#1243C3"/>
		<stop  offset="0.5718" style="stop-color:#01317B"/>
		<stop  offset="1" style="stop-color:#0B003F"/>
	</linearGradient>
	<path style="fill:url(#SVGID_22_);" d="M13.7,3.2c0-0.3,0.3-0.5,0.6-0.5c0.1,0,0.3,0.1,0.4,0.1L17,0.5c-0.1-0.1-0.2-0.3-0.2-0.5
		c-0.3,0-0.5,0-0.8,0c-3.1,0-6,1-8.4,2.6c0.1,0.1,0.1,0.2,0.1,0.3L13.7,3.2z"/>
	<linearGradient id="SVGID_23_" gradientUnits="userSpaceOnUse" x1="2.6019" y1="1.4555" x2="32.4507" y2="23.822">
		<stop  offset="0" style="stop-color:#1243C3"/>
		<stop  offset="0.5718" style="stop-color:#01317B"/>
		<stop  offset="1" style="stop-color:#0B003F"/>
	</linearGradient>
	<path style="fill:url(#SVGID_23_);" d="M24.9,16.2C24.9,16.2,24.9,16.2,24.9,16.2L18.3,15c0,0,0,0.1,0,0.1l6.1,3.9
		c0.1-0.1,0.3-0.2,0.5-0.2c0,0,0,0,0,0l0.3-2.1C25,16.6,24.9,16.4,24.9,16.2z"/>
	<linearGradient id="SVGID_24_" gradientUnits="userSpaceOnUse" x1="4.6516" y1="-1.2799" x2="34.5004" y2="21.0866">
		<stop  offset="0" style="stop-color:#1243C3"/>
		<stop  offset="0.5718" style="stop-color:#01317B"/>
		<stop  offset="1" style="stop-color:#0B003F"/>
	</linearGradient>
	<path style="fill:url(#SVGID_24_);" d="M28.6,19.3c0.1,0,0.1,0,0.1,0l1.8-3.9c-0.1-0.1-0.2-0.2-0.3-0.3l-4.5,1.1c0,0,0,0,0,0.1
		c0,0.1,0,0.2-0.1,0.3l2.6,2.8C28.4,19.3,28.5,19.3,28.6,19.3z"/>
	<linearGradient id="SVGID_25_" gradientUnits="userSpaceOnUse" x1="-3.561" y1="9.6802" x2="26.2877" y2="32.0466">
		<stop  offset="0" style="stop-color:#1243C3"/>
		<stop  offset="0.5718" style="stop-color:#01317B"/>
		<stop  offset="1" style="stop-color:#0B003F"/>
	</linearGradient>
	<path style="fill:url(#SVGID_25_);" d="M2.4,18.8l2.3,0.2c0-0.2,0.2-0.4,0.4-0.4l0.4-6.7c0,0-0.1,0-0.1,0L2,18.2
		C2.2,18.3,2.4,18.5,2.4,18.8z"/>
	<linearGradient id="SVGID_26_" gradientUnits="userSpaceOnUse" x1="-2.915" y1="8.818" x2="26.9338" y2="31.1845">
		<stop  offset="0" style="stop-color:#1243C3"/>
		<stop  offset="0.5718" style="stop-color:#01317B"/>
		<stop  offset="1" style="stop-color:#0B003F"/>
	</linearGradient>
	<path style="fill:url(#SVGID_26_);" d="M5.3,18.5c0.1,0,0.2,0.1,0.3,0.2l3.1-2c-0.1-0.1-0.1-0.2-0.1-0.3c0-0.2,0.1-0.4,0.3-0.5
		l-2.9-4c-0.1,0-0.1,0.1-0.2,0.1L5.3,18.5z"/>
	<linearGradient id="SVGID_27_" gradientUnits="userSpaceOnUse" x1="0.1858" y1="4.6799" x2="30.0346" y2="27.0463">
		<stop  offset="0" style="stop-color:#1243C3"/>
		<stop  offset="0.5718" style="stop-color:#01317B"/>
		<stop  offset="1" style="stop-color:#0B003F"/>
	</linearGradient>
	<path style="fill:url(#SVGID_27_);" d="M6.1,11.2l4.2-0.9c0,0,0,0,0-0.1c0-0.1,0-0.1,0-0.2l-4.5-2C5.7,8.3,5.5,8.4,5.3,8.4l0.3,2.5
		c0,0,0,0,0,0C5.9,10.9,6,11.1,6.1,11.2z"/>
	<linearGradient id="SVGID_28_" gradientUnits="userSpaceOnUse" x1="-5.4885" y1="12.2524" x2="24.3603" y2="34.6189">
		<stop  offset="0" style="stop-color:#1243C3"/>
		<stop  offset="0.5718" style="stop-color:#01317B"/>
		<stop  offset="1" style="stop-color:#0B003F"/>
	</linearGradient>
	<path style="fill:url(#SVGID_28_);" d="M5.2,19.5c-0.3,0-0.5-0.2-0.5-0.5l-2.3-0.2c0,0.1,0,0.1-0.1,0.2l4.9,2.8c0,0,0-0.1,0.1-0.1
		l-1.8-2.4C5.3,19.5,5.3,19.5,5.2,19.5z"/>
	<linearGradient id="SVGID_29_" gradientUnits="userSpaceOnUse" x1="-3.8487" y1="10.064" x2="26.0001" y2="32.4305">
		<stop  offset="0" style="stop-color:#1243C3"/>
		<stop  offset="0.5718" style="stop-color:#01317B"/>
		<stop  offset="1" style="stop-color:#0B003F"/>
	</linearGradient>
	<path style="fill:url(#SVGID_29_);" d="M8.2,22.1l5-0.7c0,0,0,0,0,0c0-0.1,0-0.2,0-0.2c-1.8-0.8-3.2-2.3-3.8-4.1
		c-0.1,0-0.1,0-0.2,0c0,0-0.1,0-0.1,0l-1.3,4.6C8.1,21.7,8.2,21.9,8.2,22.1z"/>
	<linearGradient id="SVGID_30_" gradientUnits="userSpaceOnUse" x1="-1.7277" y1="7.2335" x2="28.1211" y2="29.6">
		<stop  offset="0" style="stop-color:#1243C3"/>
		<stop  offset="0.5718" style="stop-color:#01317B"/>
		<stop  offset="1" style="stop-color:#0B003F"/>
	</linearGradient>
	<path style="fill:url(#SVGID_30_);" d="M5.2,8.5c-0.1,0-0.2,0-0.3-0.1l-3.3,5.2c0,0,0.1,0,0.1,0.1l3.6-2.1c0-0.1,0-0.1,0-0.2
		c0-0.2,0.2-0.4,0.4-0.5L5.2,8.5C5.2,8.4,5.2,8.5,5.2,8.5z"/>
	<linearGradient id="SVGID_31_" gradientUnits="userSpaceOnUse" x1="1.985" y1="2.2788" x2="31.8338" y2="24.6453">
		<stop  offset="0" style="stop-color:#1243C3"/>
		<stop  offset="0.5718" style="stop-color:#01317B"/>
		<stop  offset="1" style="stop-color:#0B003F"/>
	</linearGradient>
	<path style="fill:url(#SVGID_31_);" d="M10.5,9.8L7.3,3.5c-0.1,0-0.1,0-0.2,0c-0.1,0-0.1,0-0.2,0L5.5,7.1c0.2,0.1,0.4,0.4,0.4,0.6
		c0,0.1,0,0.2,0,0.2l4.5,2C10.4,9.9,10.5,9.9,10.5,9.8z"/>
	<linearGradient id="SVGID_32_" gradientUnits="userSpaceOnUse" x1="-6.6988" y1="13.8676" x2="23.1499" y2="36.2341">
		<stop  offset="0" style="stop-color:#1243C3"/>
		<stop  offset="0.5718" style="stop-color:#01317B"/>
		<stop  offset="1" style="stop-color:#0B003F"/>
	</linearGradient>
	<path style="fill:url(#SVGID_32_);" d="M7.7,22.8c-0.2,0-0.3-0.1-0.4-0.2l-2.1,1.6c0,0.1,0.1,0.2,0.1,0.2c0,0,0,0.1,0,0.1l2.7,1
		c0.1-0.1,0.2-0.2,0.3-0.2L7.7,22.8C7.7,22.8,7.7,22.8,7.7,22.8z"/>
	<linearGradient id="SVGID_33_" gradientUnits="userSpaceOnUse" x1="-0.4788" y1="5.5668" x2="29.37" y2="27.9333">
		<stop  offset="0" style="stop-color:#1243C3"/>
		<stop  offset="0.5718" style="stop-color:#01317B"/>
		<stop  offset="1" style="stop-color:#0B003F"/>
	</linearGradient>
	<path style="fill:url(#SVGID_33_);" d="M6.1,11.4C6.1,11.4,6.1,11.4,6.1,11.4c0,0.2-0.1,0.3-0.1,0.4l2.9,4c0.1,0,0.1-0.1,0.2-0.1
		c0-0.3-0.1-0.5-0.1-0.8c0,0,0,0,0,0c0-1.5,0.5-2.8,1.2-3.9c0-0.1,0.1-0.1,0.1-0.2c-0.1-0.1-0.1-0.2-0.1-0.2L6.1,11.4z"/>
	<linearGradient id="SVGID_34_" gradientUnits="userSpaceOnUse" x1="-5.896" y1="12.7962" x2="23.9528" y2="35.1627">
		<stop  offset="0" style="stop-color:#1243C3"/>
		<stop  offset="0.5718" style="stop-color:#01317B"/>
		<stop  offset="1" style="stop-color:#0B003F"/>
	</linearGradient>
	<path style="fill:url(#SVGID_34_);" d="M16.8,29.1l-2-3.9c-0.1,0-0.1,0-0.2,0c-0.1,0-0.2,0-0.3-0.1l-2.7,3.4
		c0.1,0.1,0.1,0.2,0.1,0.3c0,0,0,0.1,0,0.1c1.4,0.4,2.8,0.7,4.4,0.7c0.2,0,0.4,0,0.6,0c0,0,0-0.1,0-0.1
		C16.6,29.4,16.7,29.2,16.8,29.1z"/>
	<linearGradient id="SVGID_35_" gradientUnits="userSpaceOnUse" x1="-7.5006" y1="14.9376" x2="22.3482" y2="37.3041">
		<stop  offset="0" style="stop-color:#1243C3"/>
		<stop  offset="0.5718" style="stop-color:#01317B"/>
		<stop  offset="1" style="stop-color:#0B003F"/>
	</linearGradient>
	<path style="fill:url(#SVGID_35_);" d="M8.6,26.2c-0.1,0.1-0.2,0.1-0.3,0.1c-0.3,0-0.5-0.2-0.5-0.5c0,0,0-0.1,0-0.1l-2.7-1
		c0,0,0,0.1-0.1,0.1c1.6,1.7,3.5,3.1,5.7,3.9c0,0,0-0.1,0.1-0.1L8.6,26.2z"/>
	<linearGradient id="SVGID_36_" gradientUnits="userSpaceOnUse" x1="-6.6156" y1="13.7566" x2="23.2332" y2="36.123">
		<stop  offset="0" style="stop-color:#1243C3"/>
		<stop  offset="0.5718" style="stop-color:#01317B"/>
		<stop  offset="1" style="stop-color:#0B003F"/>
	</linearGradient>
	<path style="fill:url(#SVGID_36_);" d="M5,24.1l2.1-1.6c-0.1-0.1-0.1-0.2-0.1-0.3c0-0.1,0-0.2,0.1-0.2l-4.9-2.8
		c-0.1,0.1-0.2,0.2-0.3,0.3c0.6,1.7,1.4,3.3,2.5,4.6C4.5,24,4.6,24,4.7,24C4.8,24,4.9,24,5,24.1z"/>
	<linearGradient id="SVGID_37_" gradientUnits="userSpaceOnUse" x1="-0.2503" y1="5.2619" x2="29.5985" y2="27.6283">
		<stop  offset="0" style="stop-color:#1243C3"/>
		<stop  offset="0.5718" style="stop-color:#01317B"/>
		<stop  offset="1" style="stop-color:#0B003F"/>
	</linearGradient>
	<path style="fill:url(#SVGID_37_);" d="M4.7,8.3C4.6,8.2,4.4,8,4.4,7.7C4.4,7.3,4.8,7,5.2,7c0.1,0,0.1,0,0.2,0l1.4-3.6
		c-0.1,0-0.1-0.1-0.2-0.1c-3,2.5-5,6.1-5.4,10.2c0,0,0.1,0,0.1,0L4.7,8.3z"/>
	<linearGradient id="SVGID_38_" gradientUnits="userSpaceOnUse" x1="1.514" y1="2.9073" x2="31.3628" y2="25.2738">
		<stop  offset="0" style="stop-color:#1243C3"/>
		<stop  offset="0.5718" style="stop-color:#01317B"/>
		<stop  offset="1" style="stop-color:#0B003F"/>
	</linearGradient>
	<path style="fill:url(#SVGID_38_);" d="M28.7,20.2C28.6,20.2,28.6,20.2,28.7,20.2c-0.1,0-0.1,0-0.1,0l-1,3.7
		c0.2,0.1,0.4,0.3,0.4,0.6c0,0.2-0.1,0.3-0.2,0.4l2.8,2.8c0,0,0.1-0.1,0.2-0.1L28.7,20.2z"/>
	<linearGradient id="SVGID_39_" gradientUnits="userSpaceOnUse" x1="-0.1011" y1="5.0628" x2="29.7476" y2="27.4293">
		<stop  offset="0" style="stop-color:#1243C3"/>
		<stop  offset="0.5718" style="stop-color:#01317B"/>
		<stop  offset="1" style="stop-color:#0B003F"/>
	</linearGradient>
	<path style="fill:url(#SVGID_39_);" d="M26.7,24.5c0-0.2,0.1-0.4,0.3-0.5l-2-4c-0.1,0-0.1,0-0.2,0c0,0,0,0,0,0l-0.9,7
		c0.1,0,0.3,0.1,0.4,0.2c1-0.7,1.9-1.4,2.7-2.3C26.8,24.8,26.7,24.6,26.7,24.5z"/>
	<linearGradient id="SVGID_40_" gradientUnits="userSpaceOnUse" x1="-3.5483" y1="9.6631" x2="26.3005" y2="32.0296">
		<stop  offset="0" style="stop-color:#1243C3"/>
		<stop  offset="0.5718" style="stop-color:#01317B"/>
		<stop  offset="1" style="stop-color:#0B003F"/>
	</linearGradient>
	<path style="fill:url(#SVGID_40_);" d="M1.9,18.1l3.4-6.3c0,0-0.1-0.1-0.1-0.1l-3.6,2.1c0,0.1,0,0.1,0,0.2c0,0.3-0.2,0.5-0.5,0.5
		c0,0.1,0,0.2,0,0.3c0,0,0,0,0,0c0,0,0,0,0,0c0,1.1,0.1,2.2,0.4,3.2c0,0,0.1,0,0.1,0C1.7,18,1.8,18.1,1.9,18.1z"/>
	<linearGradient id="SVGID_41_" gradientUnits="userSpaceOnUse" x1="-4.0202" y1="10.2929" x2="25.8286" y2="32.6593">
		<stop  offset="0" style="stop-color:#1243C3"/>
		<stop  offset="0.5718" style="stop-color:#01317B"/>
		<stop  offset="1" style="stop-color:#0B003F"/>
	</linearGradient>
	<path style="fill:url(#SVGID_41_);" d="M23.1,27.5l-4-0.6c-0.1,0.2-0.2,0.3-0.5,0.3c-0.1,0-0.1,0-0.2,0l-1.1,2
		c0.1,0.1,0.2,0.2,0.2,0.4c0,0,0,0,0,0.1c2-0.2,3.9-0.8,5.6-1.8C23.1,27.7,23.1,27.6,23.1,27.5C23.1,27.5,23.1,27.5,23.1,27.5z"/>
</g>
<g>
	<g>
		<path style="fill:#160F3C;" d="M45.2,9.7h-1.6c-0.4,0-0.6,0.2-0.6,0.6v2.6c-0.5,0.3-1.2,0.5-1.9,0.5c-1.1,0-2.1-0.4-2.8-1.2
			c-0.8-0.8-1.2-1.9-1.2-3c0-1.1,0.4-2.2,1.2-2.9c0.8-0.8,1.8-1.2,3-1.2c0.9,0,1.6,0.3,2.4,0.8c0.3,0.2,0.6,0.2,0.8-0.1l1.1-1.5
			c0.1-0.1,0.1-0.2,0.1-0.3c0-0.2-0.1-0.3-0.3-0.5c-1.2-0.9-2.6-1.4-4.2-1.4c-1.3,0-2.5,0.3-3.6,1c-1,0.6-1.9,1.5-2.5,2.5
			c-0.6,1.1-1,2.3-1,3.6c0,1.3,0.3,2.5,1,3.6c0.6,1.1,1.5,1.9,2.6,2.5c1.1,0.6,2.3,1,3.6,1c0.8,0,1.6-0.1,2.4-0.4
			c0.7-0.2,1.3-0.6,1.9-1c0.2-0.1,0.3-0.3,0.3-0.6v-4.1C45.8,9.9,45.5,9.7,45.2,9.7z"/>
		<path style="fill:#160F3C;" d="M55.9,13.2h-5l0-10.3c0-0.4-0.3-0.6-0.6-0.6h-1.8c-0.4,0-0.6,0.3-0.6,0.6v12.6
			c0,0.4,0.2,0.6,0.6,0.6l7.5,0c0.4,0,0.6-0.3,0.6-0.6v-1.6C56.5,13.5,56.3,13.2,55.9,13.2z"/>
		<path style="fill:#160F3C;" d="M67.2,3.1L67.2,3.1c-2.2-1.3-5.1-1.2-7.2,0c-1,0.6-1.9,1.5-2.5,2.5c-0.6,1.1-1,2.3-1,3.6
			c0,1.3,0.3,2.5,1,3.6c0.6,1.1,1.5,1.9,2.5,2.5c1.1,0.6,2.3,1,3.6,1c1.3,0,2.5-0.3,3.6-1c1.1-0.6,2-1.5,2.6-2.5
			c0.6-1.1,1-2.3,1-3.6c0-1.3-0.3-2.5-1-3.6C69.2,4.6,68.3,3.7,67.2,3.1z M66.5,12.1c-0.7,0.8-1.8,1.2-2.9,1.2
			c-1.1,0-2.1-0.4-2.8-1.2c-0.7-0.8-1.1-1.8-1.1-2.9c0-1.1,0.4-2.2,1.1-2.9c0.7-0.8,1.7-1.2,2.8-1.2c1.1,0,2.1,0.4,2.9,1.2
			c0.7,0.8,1.1,1.8,1.1,2.9C67.6,10.3,67.2,11.3,66.5,12.1L66.5,12.1z"/>
		<path style="fill:#160F3C;" d="M81.9,8.7c0.6-0.6,0.9-1.5,0.9-2.5c0-1.1-0.4-2.1-1.1-2.8C81,2.7,80,2.3,78.9,2.3h-5.8
			c-0.4,0-0.6,0.2-0.6,0.6v12.6c0,0.4,0.2,0.6,0.6,0.6h6.4c1,0,2-0.4,2.8-1.2c0.7-0.8,1.1-1.8,1.1-2.9c0-0.7-0.2-1.4-0.5-2
			C82.7,9.5,82.4,9.1,81.9,8.7z M75.7,7.7V4.9h2.6c0.4,0,0.8,0.1,1.1,0.4c0.3,0.2,0.4,0.6,0.4,1c0,0.9-0.6,1.4-1.5,1.4H75.7z
			 M80.3,11.9c0,0.4-0.1,0.8-0.4,1.1l0,0c-0.3,0.3-0.7,0.5-1.1,0.5h-3.2v-3.2h3.1c0.4,0,0.8,0.2,1,0.5C80.1,11,80.3,11.5,80.3,11.9z
			"/>
		<path style="fill:#160F3C;" d="M91.8,2.8c-0.1-0.3-0.4-0.5-0.7-0.5h-1.5c-0.2,0-0.5,0.1-0.7,0.5l-5.1,12.6c0,0.1-0.1,0.2-0.1,0.3
			c0,0.2,0.1,0.5,0.5,0.5h2c0.3,0,0.5-0.2,0.7-0.5l0.8-2h5.2l0.8,2c0.1,0.3,0.3,0.5,0.7,0.5h2c0.4,0,0.5-0.2,0.5-0.5
			c0-0.1,0-0.2-0.1-0.2L91.8,2.8z M91.9,10.8h-3.1l1.6-4.2L91.9,10.8z"/>
		<path style="fill:#160F3C;" d="M106.5,13.2h-5l0-10.3c0-0.4-0.3-0.6-0.6-0.6H99c-0.4,0-0.6,0.3-0.6,0.6v12.6
			c0,0.4,0.2,0.6,0.6,0.6l7.5,0c0.4,0,0.6-0.3,0.6-0.6v-1.6C107.1,13.5,106.9,13.2,106.5,13.2z"/>
		<path style="fill:#160F3C;" d="M117.3,10.7c0.6-0.4,1.1-0.9,1.5-1.6c0.4-0.7,0.7-1.5,0.7-2.3c0-1.2-0.5-2.3-1.3-3.2
			c-0.9-0.9-2-1.4-3.2-1.4h-5.7c-0.3,0-0.6,0.2-0.6,0.6v12.6c0,0.4,0.2,0.6,0.6,0.6h1.9c0.4,0,0.6-0.2,0.6-0.6v-4h2.4l2.1,4.2
			c0.1,0.3,0.3,0.4,0.6,0.4h2.3c0.3,0,0.5-0.2,0.5-0.5c0-0.1,0-0.2-0.1-0.2L117.3,10.7z M116.3,6.9c0,0.5-0.2,0.9-0.5,1.3
			c-0.4,0.3-0.9,0.5-1.4,0.5h-2.6V5.1h2.6c0.5,0,1,0.2,1.4,0.5C116.1,5.9,116.3,6.4,116.3,6.9z"/>
		<path style="fill:#160F3C;" d="M123.3,2.3h-1.9c-0.4,0-0.6,0.2-0.6,0.6v12.6c0,0.4,0.2,0.6,0.6,0.6h1.9c0.4,0,0.6-0.2,0.6-0.6V2.9
			C123.9,2.5,123.7,2.3,123.3,2.3z"/>
		<path style="fill:#160F3C;" d="M135,9L135,9c-0.7-0.6-1.7-1-3.2-1.5c-0.8-0.2-1.4-0.4-1.8-0.7c-0.5-0.3-0.6-0.6-0.6-0.8
			c0-0.5,0.2-0.8,0.6-1c0.3-0.2,0.7-0.2,1.3-0.2c0.4,0,0.9,0.1,1.3,0.4c0.3,0.2,0.7,0.4,1.1,0.8c0.4,0.3,0.7,0.4,1,0.1l1-1.1
			c0.2-0.2,0.2-0.3,0.2-0.5c0-0.2-0.1-0.3-0.2-0.5c-0.6-0.6-1.2-1-2-1.4c-0.8-0.4-1.6-0.6-2.4-0.6c-1.4,0-2.7,0.4-3.6,1.1
			c-0.9,0.7-1.4,1.7-1.4,2.9c0,1.1,0.4,1.9,1.2,2.6c0.8,0.6,1.9,1.2,3.4,1.7l0.2,0.1c0.6,0.2,1,0.3,1.3,0.5c0.5,0.3,0.8,0.6,0.8,1
			c0,0.4-0.2,0.8-0.5,1c-0.4,0.3-0.9,0.5-1.5,0.5c-0.6,0-1.1-0.2-1.7-0.5c-0.4-0.2-0.8-0.5-1.3-1c-0.4-0.3-0.7-0.3-0.9-0.1L126,13
			c-0.1,0.1-0.2,0.3-0.2,0.4c0,0,0,0.1,0,0.1c0,0.1,0.1,0.3,0.3,0.4c0.6,0.7,1.4,1.2,2.3,1.7c0.9,0.4,1.9,0.6,2.8,0.6
			c1.4,0,2.6-0.4,3.6-1.2c1-0.8,1.6-1.9,1.6-3.2C136.4,10.7,136,9.7,135,9z"/>
		<path style="fill:#160F3C;" d="M147.4,13.2h-6.4v-2.8h4.7c0.4,0,0.6-0.2,0.6-0.6V8.1c0-0.4-0.2-0.6-0.6-0.6h-4.7V5.2h6.3
			c0.4,0,0.6-0.2,0.6-0.6V2.9c0-0.4-0.2-0.6-0.6-0.6h-8.8c-0.4,0-0.6,0.2-0.6,0.6v12.6c0,0.4,0.2,0.6,0.6,0.6h9
			c0.4,0,0.6-0.2,0.6-0.6v-1.7C148,13.4,147.8,13.2,147.4,13.2z"/>
	</g>
	<g>
		<path style="fill:#160F3C;" d="M39,26.5c0,0,0,0.1,0,0.1c0,0.1,0,0.1-0.1,0.1h-1.1c-0.2,0-0.2-0.1-0.3-0.3l-0.1-0.4h-1.7
			c-0.1,0.2-0.1,0.4-0.2,0.6c0,0.1-0.1,0.2-0.2,0.2h-1.1c-0.1,0-0.1,0-0.1-0.1c0,0,0-0.1,0-0.1c0,0,0,0,0,0l1.8-4.5
			c0-0.1,0.1-0.2,0.2-0.2h1c0.1,0,0.1,0,0.2,0.1c0,0,0,0,0,0.1c0,0,0,0,0,0.1C37.8,23.3,38.4,24.8,39,26.5L39,26.5z M37,24.9
			l-0.5-1.4l-0.1,0.2l-0.2,0.5l-0.2,0.5l-0.1,0.1H37z"/>
		<path style="fill:#160F3C;" d="M40.2,26.7c-0.1,0-0.2-0.1-0.2-0.2V22c0-0.2,0.1-0.2,0.2-0.2h1.8c0.7,0,1.3,0.3,1.7,0.7
			c0.4,0.4,0.7,1.1,0.7,1.7c0,0.7-0.2,1.3-0.7,1.7c-0.4,0.5-1,0.7-1.7,0.7H40.2z M41.9,25.5c0.4,0,0.7-0.1,0.9-0.4
			c0.2-0.2,0.3-0.6,0.3-0.9c0-0.4-0.1-0.7-0.3-0.9c-0.2-0.2-0.5-0.4-0.9-0.4h-0.5v2.6H41.9z"/>
		<path style="fill:#160F3C;" d="M46.5,26.7c-0.1,0-0.2,0-0.3-0.1c0,0-0.1-0.1-0.1-0.3l-0.8-2l-0.9-2.2c0,0,0,0,0-0.1
			c0-0.1,0.1-0.2,0.3-0.2h0.9c0.2,0,0.3,0.1,0.3,0.2l1,2.8l1-2.8c0.1-0.1,0.2-0.2,0.3-0.2h0.9c0.2,0,0.3,0.1,0.3,0.2c0,0,0,0,0,0.1
			l-1.8,4.4c-0.1,0.2-0.2,0.3-0.3,0.3H46.5z"/>
		<path style="fill:#160F3C;" d="M50.5,26.7c-0.1,0-0.2-0.1-0.2-0.2V22c0-0.2,0.1-0.2,0.2-0.2h3.2c0.1,0,0.2,0.1,0.2,0.2v0.7
			c0,0.2-0.1,0.2-0.2,0.2h-2.1v0.7h1.6c0.1,0,0.2,0.1,0.2,0.2v0.6c0,0.1-0.1,0.2-0.2,0.2h-1.6v0.7h2.2c0.1,0,0.2,0.1,0.2,0.2v0.7
			c0,0.1-0.1,0.2-0.2,0.2H50.5z"/>
		<path style="fill:#160F3C;" d="M55.5,26.7c-0.2,0-0.2-0.1-0.2-0.2V22c0-0.1,0.1-0.2,0.2-0.2h2.2c0.5,0,0.9,0.2,1.1,0.5
			c0.3,0.3,0.5,0.7,0.5,1.2c0,0.5-0.3,1.1-0.7,1.4l0.7,1.6c0,0,0,0.1,0,0.1c0,0.1-0.1,0.2-0.2,0.2c-0.1,0-0.3,0-0.5,0h-0.5
			c-0.2,0-0.3-0.1-0.4-0.3l-0.6-1.3h-0.7v1.4c0,0.1-0.1,0.2-0.2,0.2H55.5z M57.2,24c0.2,0,0.3,0,0.4-0.1c0.1-0.1,0.2-0.2,0.2-0.4
			c0-0.2-0.1-0.3-0.2-0.4c-0.1-0.1-0.3-0.1-0.4-0.1h-0.6v1H57.2z"/>
		<path style="fill:#160F3C;" d="M61.2,26.7c-0.2,0-0.2-0.1-0.2-0.2v-3.4h-1c-0.1,0-0.2-0.1-0.2-0.2V22c0-0.1,0.1-0.2,0.2-0.2h3.5
			c0.1,0,0.2,0.1,0.2,0.2v0.9c0,0.1-0.1,0.2-0.2,0.2h-1.1v3.4c0,0.2-0.1,0.2-0.2,0.2H61.2z"/>
		<path style="fill:#160F3C;" d="M64.9,26.7c-0.2,0-0.2-0.1-0.2-0.2V22c0-0.1,0.1-0.2,0.2-0.2h0.9c0.1,0,0.2,0.1,0.2,0.2v4.4
			c0,0.2-0.1,0.2-0.2,0.2H64.9z"/>
		<path style="fill:#160F3C;" d="M67.4,26.1c-0.1-0.1-0.1-0.1-0.2-0.2c0,0,0-0.1,0-0.1c0-0.1,0-0.1,0.1-0.1l0.6-0.5c0,0,0.1,0,0.1,0
			c0.1,0,0.3,0.2,0.4,0.2c0.2,0.1,0.3,0.2,0.5,0.3c0.1,0,0.2,0.1,0.3,0.1c0.2,0,0.4-0.1,0.5-0.1c0.1-0.1,0.1-0.2,0.1-0.3
			c0-0.1-0.1-0.2-0.3-0.4c-0.2-0.1-0.4-0.2-0.5-0.2c-0.6-0.2-1-0.4-1.3-0.6c-0.3-0.2-0.4-0.6-0.4-0.9c0-0.4,0.2-0.7,0.5-1
			c0.3-0.3,0.8-0.4,1.4-0.4c0.6,0,1.2,0.2,1.6,0.6c0.1,0.1,0.2,0.2,0.2,0.3c0,0,0,0.1,0,0.1c-0.1,0.1-0.1,0.2-0.3,0.3
			c-0.1,0.1-0.2,0.2-0.3,0.2c0,0-0.1,0-0.1,0c0,0-0.1,0-0.2-0.1c0,0-0.2-0.2-0.3-0.2c-0.2-0.1-0.3-0.1-0.5-0.1c-0.1,0-0.3,0-0.3,0.1
			c-0.1,0.1-0.2,0.1-0.2,0.3c0,0.1,0.1,0.2,0.2,0.3c0.1,0.1,0.3,0.1,0.6,0.2c0.5,0.2,0.9,0.4,1.2,0.6c0.3,0.3,0.5,0.6,0.5,1
			c0,0.5-0.2,0.9-0.6,1.2c-0.4,0.3-0.9,0.4-1.4,0.4C68.4,26.8,67.8,26.6,67.4,26.1z"/>
		<path style="fill:#160F3C;" d="M72.5,26.7c-0.2,0-0.2-0.1-0.2-0.2V22c0-0.1,0.1-0.2,0.2-0.2h0.9c0.1,0,0.2,0.1,0.2,0.2v4.4
			c0,0.2-0.1,0.2-0.2,0.2H72.5z"/>
		<path style="fill:#160F3C;" d="M75.4,26.7c-0.2,0-0.2-0.1-0.2-0.2v-4.4c0-0.1,0.1-0.2,0.2-0.2h1.1c0.1,0,0.2,0,0.2,0.1l1.9,2.7V22
			c0-0.1,0.1-0.2,0.2-0.2h0.9c0.1,0,0.2,0.1,0.2,0.2v4.4c0,0.2-0.1,0.2-0.2,0.2h-1.1c-0.1,0-0.1,0-0.2-0.1l-2-2.7v2.6
			c0,0.2-0.1,0.2-0.2,0.2H75.4z"/>
		<path style="fill:#160F3C;" d="M83.2,26.7l-0.1,0c-0.5-0.2-1-0.5-1.3-0.9c-0.3-0.4-0.5-1-0.5-1.5c0-0.7,0.3-1.3,0.8-1.8
			c0.5-0.5,1.1-0.7,1.8-0.7c0.5,0,1,0.2,1.5,0.5h0c0.1,0.1,0.2,0.1,0.2,0.2c0,0,0,0.1,0,0.1l-0.4,0.7c0,0.1-0.1,0.1-0.2,0.1
			c0,0-0.1,0-0.2-0.1c-0.3-0.2-0.6-0.3-0.9-0.3c-0.4,0-0.7,0.2-0.9,0.4c-0.2,0.2-0.3,0.6-0.3,0.9c0,0.4,0.1,0.7,0.3,0.9
			c0.2,0.2,0.5,0.4,0.9,0.4c0.2,0,0.4,0,0.6-0.1v-0.7c0-0.1,0.1-0.2,0.2-0.2h0.8c0.1,0,0.2,0.1,0.2,0.2v0.6v0.4v0.2
			c0,0.1,0,0.2-0.1,0.3c-0.1,0.1-0.3,0.2-0.6,0.4c-0.3,0.1-0.5,0.2-0.8,0.2c-0.1,0-0.3,0-0.4,0C83.6,26.8,83.4,26.8,83.2,26.7z"/>
		<path style="fill:#160F3C;" d="M90.7,26.1c-0.5-0.4-0.8-1-0.8-1.7c0-0.4,0.1-0.8,0.3-1.2c0.2-0.3,0.4-0.6,0.8-0.8
			c-0.4-0.4-0.5-0.9-0.5-1.4c0-0.5,0.2-1,0.6-1.4c0.4-0.3,0.9-0.5,1.4-0.5c0.6,0,1.2,0.2,1.5,0.6c0.3,0.3,0.5,0.8,0.5,1.4
			c0,0.1,0,0.1,0,0.2c0,0.1-0.1,0.1-0.1,0.1l-0.9,0c-0.1,0-0.2,0-0.2-0.1c0-0.5-0.3-0.8-0.8-0.8c-0.3,0-0.5,0.1-0.6,0.2
			c-0.1,0.1-0.2,0.3-0.2,0.5c0,0.2,0.1,0.4,0.2,0.6c0.1,0.2,0.4,0.3,0.6,0.3c0,0,0.1,0,0.1,0.1c0,0,0.1,0.1,0.1,0.1l-0.2,0.8
			c0,0.1-0.1,0.1-0.2,0.1h0c0,0-0.1,0-0.1,0l-0.1,0c-0.3,0-0.5,0.1-0.6,0.3c-0.2,0.2-0.2,0.5-0.2,0.8c0,0.4,0.1,0.7,0.4,0.9
			c0.2,0.2,0.5,0.3,0.9,0.3c0.4,0,0.7-0.1,0.9-0.3c0.2-0.2,0.4-0.5,0.4-0.8l-0.7-0.2c0,0-0.1,0-0.1,0c0,0-0.1-0.1,0-0.1l0.2-0.9
			c0-0.1,0.1-0.2,0.2-0.1l2.4,0.5c0.1,0,0.2,0,0.2,0c0.2,0,0.3-0.1,0.4-0.2c0.1-0.1,0.1-0.1,0.1-0.2c0-0.2,0.1-0.2,0.1-0.3
			c0,0,0.1,0,0.1,0l0.9,0.2c0.1,0,0.1,0.1,0.1,0.2c0,0,0,0,0,0c-0.1,0.2-0.1,0.4-0.3,0.7c-0.2,0.3-0.4,0.5-0.7,0.7
			c-0.2,0.1-0.5,0.2-0.8,0.2c-0.1,0-0.3,0-0.4,0l-0.4-0.1c-0.1,0.7-0.4,1.2-0.9,1.6c-0.5,0.3-1.1,0.5-1.8,0.5
			C91.9,26.8,91.2,26.6,90.7,26.1z"/>
		<path style="fill:#160F3C;" d="M101.3,26.7c-0.1,0-0.2-0.1-0.2-0.2l0-0.5c0-0.3,0-0.6,0.1-1l0.1-0.7l0-0.3l0.1-1.9
			c0-0.1,0.1-0.2,0.2-0.2h1.4c0.1,0,0.2,0.1,0.2,0.2v0c0.1,0.3,0.2,0.6,0.3,0.9l0.3,0.7l0.4,1c0.4-0.9,0.7-1.7,1-2.6
			c0-0.1,0.1-0.2,0.2-0.2h1.4c0.1,0,0.2,0.1,0.2,0.2l0,0.6l0.1,1.2l0.1,1.1l0.1,1.5c0,0.2-0.1,0.2-0.2,0.2h-0.9
			c-0.2,0-0.2-0.1-0.2-0.2l-0.1-2.4c0,0,0-0.1,0-0.1l0-0.1c-0.2,0.5-0.4,0.9-0.5,1.2c-0.2,0.6-0.4,1-0.5,1.2
			c-0.1,0.1-0.1,0.2-0.2,0.2h-0.9c-0.1,0-0.1-0.1-0.2-0.2l-1-2.5c0,0.6-0.1,1.1-0.1,1.4c0,0.6-0.1,1.1-0.1,1.4
			c0,0.2-0.1,0.2-0.2,0.2H101.3z"/>
		<path style="fill:#160F3C;" d="M113.1,26.5c0,0,0,0.1,0,0.1c0,0.1,0,0.1-0.1,0.1h-1.1c-0.2,0-0.2-0.1-0.3-0.3l-0.1-0.4h-1.7
			c-0.1,0.2-0.1,0.4-0.2,0.6c0,0.1-0.1,0.2-0.2,0.2h-1.1c-0.1,0-0.1,0-0.1-0.1c0,0,0-0.1,0-0.1c0,0,0,0,0,0l1.8-4.5
			c0-0.1,0.1-0.2,0.2-0.2h1c0.1,0,0.1,0,0.2,0.1c0,0,0,0,0,0.1c0,0,0,0,0,0.1C111.8,23.3,112.4,24.8,113.1,26.5L113.1,26.5z
			 M111.1,24.9l-0.5-1.4l-0.1,0.2l-0.2,0.5l-0.2,0.5l-0.1,0.1H111.1z"/>
		<path style="fill:#160F3C;" d="M114.3,26.7c-0.2,0-0.2-0.1-0.2-0.2V22c0-0.1,0.1-0.2,0.2-0.2h2.2c0.5,0,0.9,0.2,1.1,0.5
			c0.3,0.3,0.5,0.7,0.5,1.2c0,0.5-0.3,1.1-0.7,1.4l0.7,1.6c0,0,0,0.1,0,0.1c0,0.1-0.1,0.2-0.2,0.2c-0.1,0-0.3,0-0.5,0H117
			c-0.2,0-0.3-0.1-0.4-0.3l-0.6-1.3h-0.7v1.4c0,0.1-0.1,0.2-0.2,0.2H114.3z M116,24c0.2,0,0.3,0,0.4-0.1c0.1-0.1,0.2-0.2,0.2-0.4
			c0-0.2-0.1-0.3-0.2-0.4c-0.1-0.1-0.3-0.1-0.4-0.1h-0.6v1H116z"/>
		<path style="fill:#160F3C;" d="M119.5,26.7c-0.1,0-0.2-0.1-0.2-0.2V22c0-0.1,0.1-0.2,0.2-0.2h0.9c0.1,0,0.2,0.1,0.2,0.2v1.9
			l1.7-1.9c0.1-0.1,0.2-0.1,0.3-0.1h1.2c0.1,0,0.2,0,0.2,0.1c0,0.1,0,0.1-0.1,0.2c-0.6,0.7-1.2,1.3-1.8,1.9l1.9,2.4
			c0.1,0.1,0.1,0.1,0.1,0.2c0,0,0,0.1-0.1,0.1h-1.2c-0.1,0-0.3,0-0.3-0.1c-0.1-0.1-0.2-0.2-0.2-0.2l-1.1-1.5l-0.6,0.6v1
			c0,0.1-0.1,0.2-0.2,0.2H119.5z"/>
		<path style="fill:#160F3C;" d="M125.4,26.7c-0.1,0-0.2-0.1-0.2-0.2V22c0-0.2,0.1-0.2,0.2-0.2h3.2c0.1,0,0.2,0.1,0.2,0.2v0.7
			c0,0.2-0.1,0.2-0.2,0.2h-2.1v0.7h1.6c0.1,0,0.2,0.1,0.2,0.2v0.6c0,0.1-0.1,0.2-0.2,0.2h-1.6v0.7h2.2c0.1,0,0.2,0.1,0.2,0.2v0.7
			c0,0.1-0.1,0.2-0.2,0.2H125.4z"/>
		<path style="fill:#160F3C;" d="M130.9,26.7c-0.2,0-0.2-0.1-0.2-0.2v-3.4h-1c-0.1,0-0.2-0.1-0.2-0.2V22c0-0.1,0.1-0.2,0.2-0.2h3.5
			c0.1,0,0.2,0.1,0.2,0.2v0.9c0,0.1-0.1,0.2-0.2,0.2h-1.1v3.4c0,0.2-0.1,0.2-0.2,0.2H130.9z"/>
		<path style="fill:#160F3C;" d="M134.6,26.7c-0.2,0-0.2-0.1-0.2-0.2V22c0-0.1,0.1-0.2,0.2-0.2h0.9c0.1,0,0.2,0.1,0.2,0.2v4.4
			c0,0.2-0.1,0.2-0.2,0.2H134.6z"/>
		<path style="fill:#160F3C;" d="M137.5,26.7c-0.2,0-0.2-0.1-0.2-0.2v-4.4c0-0.1,0.1-0.2,0.2-0.2h1.1c0.1,0,0.2,0,0.2,0.1l1.9,2.7
			V22c0-0.1,0.1-0.2,0.2-0.2h0.9c0.1,0,0.2,0.1,0.2,0.2v4.4c0,0.2-0.1,0.2-0.2,0.2h-1.1c-0.1,0-0.1,0-0.2-0.1l-2-2.7v2.6
			c0,0.2-0.1,0.2-0.2,0.2H137.5z"/>
		<path style="fill:#160F3C;" d="M145.3,26.7l-0.1,0c-0.5-0.2-1-0.5-1.3-0.9c-0.3-0.4-0.5-1-0.5-1.5c0-0.7,0.3-1.3,0.8-1.8
			c0.5-0.5,1.1-0.7,1.8-0.7c0.5,0,1,0.2,1.5,0.5h0c0.1,0.1,0.2,0.1,0.2,0.2c0,0,0,0.1,0,0.1l-0.4,0.7c0,0.1-0.1,0.1-0.2,0.1
			c0,0-0.1,0-0.2-0.1c-0.3-0.2-0.6-0.3-0.9-0.3c-0.4,0-0.7,0.2-0.9,0.4c-0.2,0.2-0.3,0.6-0.3,0.9c0,0.4,0.1,0.7,0.3,0.9
			c0.2,0.2,0.5,0.4,0.9,0.4c0.2,0,0.4,0,0.6-0.1v-0.7c0-0.1,0.1-0.2,0.2-0.2h0.8c0.1,0,0.2,0.1,0.2,0.2v0.6v0.4v0.2
			c0,0.1,0,0.2-0.1,0.3c-0.1,0.1-0.3,0.2-0.6,0.4c-0.3,0.1-0.5,0.2-0.8,0.2c-0.1,0-0.3,0-0.4,0C145.7,26.8,145.5,26.8,145.3,26.7z"
			/>
	</g>
</g>
</svg>
